<?xml version="1.0" standalone="no"?><!-- Generator: Gravit.io --><svg xmlns="http://www.w3.org/2000/svg" xmlns:xlink="http://www.w3.org/1999/xlink" style="isolation:isolate" viewBox="44.257 170.748 830.525 194.752" width="830.525" height="194.752"><g id="Group"><path d=" M 139.378 170.757 C 126.044 171.138 113.753 173.897 101.956 179.163 C 89.329 184.799 78.035 193.082 68.788 203.486 C 54.473 219.591 45.933 239.934 44.47 261.401 C 44.256 264.605 44.192 269.577 44.331 272.384 C 44.754 280.951 46.056 288.617 48.408 296.375 C 53.765 314.065 64.1 329.908 78.201 342.026 C 94.113 355.709 114 363.863 134.905 365.283 C 138.146 365.503 143.15 365.567 145.915 365.423 C 151.379 365.144 155.879 364.603 160.782 363.622 C 177.197 360.354 192.643 352.79 205.302 341.817 C 208.329 339.192 211.737 335.838 214.405 332.844 C 225.859 320.002 233.772 304.138 237.126 287.289 C 238.107 282.36 238.658 277.784 238.926 272.384 C 239.066 269.577 239.001 264.605 238.787 261.401 C 237.378 240.71 229.401 221.07 215.964 205.206 C 212.139 200.69 207.681 196.313 203.154 192.632 C 193.216 184.542 182.008 178.574 169.889 174.904 C 162.121 172.558 154.379 171.234 145.995 170.832 C 144.827 170.779 140.455 170.725 139.378 170.757 Z  M 150.736 254.313 L 150.736 319.744 L 172.434 298.046 L 194.132 276.349 L 176.667 276.333 L 159.201 276.322 L 159.201 267.214 L 159.201 258.106 L 189.659 258.106 L 220.116 258.106 L 220.116 267.214 C 220.116 274.468 220.1 276.322 220.046 276.322 C 220.014 276.322 204.408 291.896 185.373 310.931 L 150.763 345.541 L 141.645 345.541 L 132.521 345.541 L 132.521 280.115 L 132.521 214.684 L 110.823 236.382 L 89.125 258.079 L 106.59 258.096 L 124.056 258.106 L 124.056 267.214 L 124.056 276.322 L 93.598 276.322 L 63.141 276.322 L 63.141 267.214 C 63.141 259.96 63.157 258.106 63.211 258.106 C 63.243 258.106 78.849 242.532 97.884 223.497 L 132.494 188.887 L 141.612 188.887 L 150.736 188.887 L 150.736 254.313 Z " fill="rgb(0,150,136)"/><g id="Group"><path d=" M 307.398 232.166 C 307.129 232.772 279.808 302.713 279.202 304.306 L 279 304.799 L 286.896 304.755 L 294.769 304.687 L 297.73 296.5 L 300.714 288.312 L 315.496 288.245 L 330.301 288.2 L 333.397 296.275 C 335.124 300.717 336.582 304.463 336.649 304.575 C 336.739 304.732 339.7 304.777 344.769 304.755 L 352.755 304.687 L 338.04 268.057 L 323.347 231.448 L 315.519 231.448 L 307.69 231.448 L 307.398 232.166 Z  M 320.364 262.022 C 323.078 269.313 325.344 275.437 325.388 275.571 C 325.456 275.795 323.37 275.863 315.474 275.863 C 309.978 275.863 305.469 275.795 305.469 275.683 C 305.447 275.392 315.227 248.721 315.339 248.721 C 315.406 248.721 317.672 254.71 320.364 262.022 Z " fill="rgb(0,0,0)"/><path d=" M 410.673 237.617 L 410.673 243.786 L 421.552 243.786 L 432.432 243.786 L 432.432 274.293 L 432.432 304.799 L 439.834 304.799 L 447.237 304.799 L 447.237 274.293 L 447.237 243.786 L 458.116 243.786 L 468.995 243.786 L 468.995 237.617 L 468.995 231.448 L 439.834 231.448 L 410.673 231.448 L 410.673 237.617 Z " fill="rgb(0,0,0)"/><path d=" M 479.987 237.617 L 479.987 243.786 L 499.906 243.831 L 519.803 243.898 L 519.803 251.973 L 519.803 260.049 L 501.364 260.116 L 482.903 260.161 L 482.903 266.329 L 482.903 272.498 L 501.409 272.498 L 519.915 272.498 L 519.915 282.48 L 519.915 292.462 L 499.278 292.462 L 478.641 292.462 L 478.641 298.631 L 478.641 304.799 L 506.68 304.799 L 534.72 304.799 L 534.72 268.124 L 534.72 231.448 L 507.353 231.448 L 479.987 231.448 L 479.987 237.617 Z " fill="rgb(0,0,0)"/><path d=" M 547.281 268.124 L 547.281 304.799 L 554.684 304.799 L 562.086 304.799 L 562.131 289.479 L 562.198 274.18 L 565.765 274.225 C 570.072 274.27 571.844 274.539 573.683 275.437 C 576.981 277.029 578.371 278.846 592.346 299.685 L 595.756 304.799 L 604.639 304.799 L 613.499 304.799 L 613.185 304.284 C 613.006 304.014 610.695 300.358 608.071 296.163 C 598.089 280.259 595.868 277.455 590.26 273.844 C 589.206 273.171 588.353 272.543 588.353 272.476 C 588.331 272.408 589.004 272.229 589.856 272.072 C 600.265 270.21 606.478 263.884 607.398 254.216 C 608.138 246.32 604.886 238.873 599.053 235.105 C 596.07 233.176 592.055 232.144 585.751 231.673 C 584.002 231.56 574.805 231.448 564.957 231.448 L 547.281 231.448 L 547.281 268.124 Z  M 585.751 244.279 C 590.103 245.558 592.212 248.451 592.189 253.072 C 592.144 258.007 589.744 260.968 584.966 261.978 C 584.181 262.135 579.74 262.269 572.921 262.337 L 562.086 262.449 L 562.086 253.095 L 562.086 243.741 L 573.369 243.853 C 582.387 243.943 584.854 244.01 585.751 244.279 Z " fill="rgb(0,0,0)"/><path d=" M 612.423 231.942 C 612.49 232.233 618.389 248.698 625.5 268.573 L 638.466 304.687 L 646.406 304.687 L 654.347 304.687 L 667.335 268.573 C 674.468 248.698 680.368 232.233 680.435 231.942 L 680.57 231.448 L 672.763 231.448 L 664.935 231.448 L 655.962 258.501 C 650.063 276.334 646.922 285.441 646.81 285.239 C 646.698 285.082 642.503 272.924 637.456 258.254 L 628.304 231.56 L 620.296 231.493 L 612.288 231.448 L 612.423 231.942 Z " fill="rgb(0,0,0)"/><path d=" M 687.927 268.124 L 687.927 304.799 L 695.33 304.799 L 702.732 304.799 L 702.732 268.124 L 702.732 231.448 L 695.33 231.448 L 687.927 231.448 L 687.927 268.124 Z " fill="rgb(0,0,0)"/><path d=" M 718.21 237.617 L 718.21 243.786 L 738.062 243.786 L 757.914 243.786 L 757.914 251.973 L 757.914 260.161 L 739.407 260.161 L 720.901 260.161 L 720.901 266.329 L 720.901 272.498 L 739.407 272.498 L 757.914 272.498 L 757.914 282.48 L 757.914 292.462 L 737.389 292.462 L 716.864 292.462 L 716.864 298.631 L 716.864 304.799 L 744.791 304.799 L 772.718 304.799 L 772.718 268.124 L 772.718 231.448 L 745.464 231.448 L 718.21 231.448 L 718.21 237.617 Z " fill="rgb(0,0,0)"/><path d=" M 778.394 231.717 C 778.438 231.875 782.409 248.384 787.209 268.393 L 795.913 304.799 L 803.921 304.799 C 811.368 304.799 811.951 304.777 812.063 304.396 C 812.131 304.194 815.361 292.058 819.264 277.433 C 823.144 262.808 826.397 250.672 826.509 250.448 C 826.621 250.179 829.156 259.353 833.979 277.366 L 841.269 304.687 L 849.165 304.755 C 853.517 304.777 857.061 304.755 857.061 304.71 C 857.061 304.665 861.054 288.245 865.921 268.258 C 870.789 248.25 874.782 231.785 874.782 231.65 C 874.782 231.538 871.843 231.448 867.379 231.448 L 859.977 231.448 L 859.865 231.942 C 859.798 232.233 857.263 243.718 854.235 257.469 C 851.206 271.219 848.716 282.503 848.672 282.525 C 848.627 282.57 845.8 271.466 842.391 257.873 C 838.981 244.257 836.065 232.749 835.953 232.278 L 835.729 231.448 L 826.913 231.448 L 818.097 231.448 L 811.861 254.822 C 808.429 267.698 805.401 279.026 805.132 280.013 C 804.795 281.269 804.594 281.673 804.504 281.358 C 804.324 280.775 793.58 231.83 793.58 231.605 C 793.58 231.516 790.148 231.448 785.931 231.448 C 779.896 231.448 778.304 231.516 778.394 231.717 Z " fill="rgb(0,0,0)"/><path d=" M 361.099 268.46 L 361.099 304.799 L 387.008 304.799 L 412.916 304.799 L 412.916 298.631 L 412.916 292.462 L 394.41 292.462 L 375.904 292.462 L 375.904 262.292 L 375.904 232.121 L 368.502 232.121 L 361.099 232.121 L 361.099 268.46 Z " fill="rgb(0,0,0)"/></g></g></svg>